<?xml version="1.0" standalone="no"?>
<!DOCTYPE svg PUBLIC "-//W3C//DTD SVG 20010904//EN"
 "http://www.w3.org/TR/2001/REC-SVG-20010904/DTD/svg10.dtd">
<svg version="1.0" xmlns="http://www.w3.org/2000/svg"
 width="1667.000000pt" height="1667.000000pt" viewBox="0 0 1667.000000 1667.000000"
 preserveAspectRatio="xMidYMid meet">
<metadata>
Created by potrace 1.11, written by Peter Selinger 2001-2013
</metadata>
<g transform="translate(0.000000,1667.000000) scale(0.100000,-0.100000)"
fill="#000000" stroke="none">
<path d="M8608 14785 c-2 -1 -68 -5 -148 -9 -80 -3 -161 -8 -180 -10 -19 -3
-66 -7 -105 -10 -38 -3 -88 -8 -110 -11 -108 -13 -202 -26 -225 -30 -14 -2
-43 -6 -65 -10 -188 -27 -529 -98 -695 -145 -19 -5 -84 -24 -145 -40 -246 -69
-672 -225 -900 -330 -219 -101 -345 -165 -550 -280 -185 -103 -435 -263 -605
-385 -94 -67 -332 -250 -380 -291 -14 -12 -61 -52 -105 -90 -305 -261 -633
-598 -865 -889 -40 -49 -79 -99 -88 -110 -123 -149 -366 -509 -508 -750 -84
-144 -271 -505 -326 -630 -95 -217 -149 -353 -217 -545 -79 -225 -127 -391
-197 -675 -35 -142 -91 -431 -109 -565 -3 -25 -8 -52 -10 -60 -2 -8 -7 -44
-10 -80 -3 -36 -8 -72 -10 -80 -3 -13 -9 -68 -20 -200 -28 -329 -28 -911 0
-1215 10 -100 16 -162 20 -185 2 -14 7 -50 10 -80 4 -30 8 -66 10 -80 2 -14 7
-45 10 -70 10 -74 45 -272 55 -310 5 -19 11 -48 14 -65 12 -76 69 -316 100
-425 8 -25 19 -65 26 -90 57 -206 217 -643 306 -838 19 -41 34 -76 34 -78 0
-12 166 -342 230 -459 96 -172 237 -400 351 -566 88 -129 254 -352 292 -394
10 -11 37 -45 60 -75 23 -30 47 -60 52 -66 6 -6 39 -44 75 -85 212 -241 489
-515 720 -714 92 -79 102 -88 195 -161 648 -512 1328 -880 2095 -1133 102 -34
194 -63 205 -66 11 -2 58 -15 105 -29 85 -25 298 -78 387 -96 67 -14 252 -49
288 -55 157 -27 193 -32 268 -40 26 -3 60 -7 75 -9 36 -6 110 -14 207 -22 44
-4 94 -8 110 -10 208 -20 837 -20 1025 1 19 2 71 6 115 10 44 3 94 8 110 10
53 8 99 14 160 20 33 4 67 8 75 10 8 2 38 7 65 11 28 3 59 8 70 10 11 2 47 9
80 14 34 5 115 21 180 34 1116 229 2136 722 3010 1455 50 42 95 80 101 86 6 5
44 39 85 75 128 112 509 501 515 527 6 21 -4 34 -60 89 -77 74 -73 74 -151
-17 -87 -103 -393 -399 -550 -534 -38 -33 -72 -62 -75 -65 -11 -13 -212 -171
-306 -242 -92 -70 -357 -249 -501 -340 -112 -70 -408 -231 -558 -304 -335
-161 -740 -316 -1055 -404 -193 -53 -537 -132 -675 -154 -116 -19 -227 -36
-270 -41 -27 -4 -61 -8 -75 -11 -14 -2 -58 -6 -97 -9 -40 -4 -81 -8 -91 -10
-10 -1 -67 -6 -127 -10 -61 -4 -128 -9 -150 -11 -50 -6 -618 -6 -705 0 -133 9
-317 25 -360 31 -14 2 -48 6 -75 9 -442 42 -1062 193 -1545 376 -111 42 -367
149 -409 170 -9 5 -87 43 -175 85 -509 248 -983 565 -1441 964 -148 129 -429
407 -550 543 -49 55 -95 106 -101 112 -77 81 -340 423 -465 606 -94 138 -289
452 -289 466 0 2 -12 23 -26 46 -72 114 -285 564 -363 768 -18 47 -37 94 -41
105 -44 106 -140 403 -189 590 -23 88 -47 176 -52 195 -13 47 -77 358 -83 401
-2 19 -11 79 -20 134 -16 107 -22 151 -31 230 -3 28 -8 67 -11 87 -5 40 -10
103 -19 233 -32 478 -15 954 51 1405 2 19 9 66 15 104 7 55 65 355 84 438 41
184 124 475 190 667 348 1017 968 1968 1756 2696 133 123 157 143 279 244 69
57 136 113 150 124 14 12 99 76 190 142 462 337 969 614 1498 819 167 65 552
192 637 211 11 2 85 20 165 40 228 57 551 119 685 131 28 3 75 9 105 14 30 5
89 12 130 15 41 3 91 8 110 10 252 26 920 25 1125 -1 17 -2 62 -6 100 -9 39
-3 81 -8 95 -10 14 -2 50 -7 80 -10 192 -20 577 -94 833 -161 95 -24 179 -46
187 -48 33 -9 410 -136 485 -164 242 -90 646 -277 830 -382 22 -13 65 -37 95
-53 122 -67 581 -362 600 -386 3 -3 50 -39 105 -80 55 -41 143 -110 196 -153
53 -43 100 -78 105 -78 5 0 40 31 78 69 l69 69 -29 28 c-131 123 -562 438
-794 579 -450 275 -927 503 -1350 645 -52 17 -104 35 -115 40 -28 11 -166 52
-315 94 -259 71 -576 137 -850 176 -36 5 -85 12 -110 14 -25 3 -67 9 -95 12
-54 7 -61 8 -210 19 -55 4 -120 9 -145 11 -49 5 -637 13 -642 9z"/>
<path d="M8677 13824 c-1 -1 -72 -5 -158 -8 -86 -4 -167 -9 -180 -11 -13 -2
-63 -6 -111 -10 -49 -3 -97 -8 -107 -10 -11 -2 -44 -6 -73 -9 -29 -4 -64 -8
-78 -10 -14 -2 -46 -7 -71 -10 -53 -8 -94 -14 -129 -21 -14 -3 -38 -8 -55 -11
-106 -18 -292 -60 -425 -95 -168 -44 -551 -168 -647 -209 -13 -6 -33 -14 -45
-19 -447 -189 -784 -369 -1120 -600 -89 -61 -368 -268 -378 -280 -3 -4 -48
-42 -100 -86 -52 -43 -122 -104 -155 -134 -102 -94 -387 -382 -455 -460 -36
-41 -70 -79 -75 -85 -21 -21 -172 -212 -216 -271 -24 -33 -47 -62 -50 -65 -18
-15 -215 -310 -296 -443 -165 -272 -316 -578 -441 -892 -77 -194 -204 -591
-228 -715 -3 -14 -11 -50 -19 -80 -46 -184 -105 -533 -120 -705 -3 -38 -8 -81
-10 -95 -13 -89 -20 -267 -20 -555 0 -283 4 -408 20 -560 9 -96 18 -172 20
-186 2 -9 6 -40 10 -70 30 -258 128 -689 226 -996 31 -97 111 -320 129 -358 5
-11 33 -78 63 -150 135 -321 299 -623 507 -936 98 -147 242 -344 298 -408 16
-19 28 -39 25 -45 -2 -6 -34 -36 -69 -66 -77 -65 -93 -88 -100 -138 -4 -30 1
-46 27 -86 38 -56 421 -445 554 -562 513 -450 1062 -804 1640 -1058 61 -27
124 -54 140 -62 17 -7 64 -26 105 -42 41 -16 84 -33 95 -37 11 -4 25 -9 30
-11 6 -2 96 -32 200 -68 105 -35 226 -74 270 -86 132 -35 308 -80 340 -86 17
-2 46 -9 65 -14 19 -5 46 -11 60 -14 40 -7 143 -26 166 -30 24 -5 68 -12 129
-21 22 -4 51 -8 65 -11 14 -2 48 -7 76 -9 28 -3 61 -7 72 -10 19 -3 44 -6 187
-20 42 -4 187 -14 290 -20 95 -6 512 -6 605 0 212 13 291 19 485 41 46 5 214
29 265 38 14 3 43 7 65 11 309 45 868 204 1246 353 14 6 38 25 52 42 37 43 35
87 -9 212 -46 132 -141 409 -162 472 -8 26 -28 61 -43 76 -41 40 -79 44 -158
16 -36 -13 -118 -43 -181 -66 -267 -97 -653 -202 -862 -234 -21 -3 -75 -12
-120 -20 -46 -8 -110 -17 -143 -21 -33 -3 -71 -8 -85 -10 -14 -2 -56 -7 -95
-10 -38 -4 -80 -8 -92 -10 -137 -22 -757 -22 -928 0 -16 2 -66 7 -110 10 -44
3 -87 8 -95 10 -8 2 -55 9 -105 16 -131 16 -131 17 -152 23 -10 3 -38 8 -61
11 -24 3 -96 18 -160 31 -65 14 -125 27 -134 29 -167 36 -531 150 -734 230
-500 197 -1002 489 -1419 824 -209 168 -467 411 -655 617 -61 67 -119 102
-142 88 -14 -9 -43 21 -106 106 -30 41 -58 77 -61 80 -20 16 -256 374 -308
464 -19 34 -44 77 -55 96 -39 66 -184 355 -230 460 -150 339 -294 795 -352
1115 -3 17 -8 41 -11 55 -6 29 -8 40 -29 170 -8 52 -18 120 -21 150 -3 30 -8
71 -10 90 -34 248 -40 859 -11 1095 3 17 7 66 11 110 4 44 9 82 10 85 2 3 6
28 9 55 11 88 14 108 35 220 32 169 30 159 66 310 43 181 109 398 179 587 37
102 121 309 136 337 5 9 43 86 84 171 144 295 310 569 505 830 329 441 743
849 1181 1165 606 437 1330 758 2030 899 206 41 250 49 380 66 47 6 99 13 115
15 17 2 58 7 90 9 33 3 94 9 135 13 163 15 818 7 918 -11 9 -2 49 -7 87 -10
39 -4 81 -9 95 -11 14 -2 45 -6 70 -10 25 -3 56 -8 70 -10 14 -3 41 -7 60 -10
206 -33 515 -107 730 -176 108 -35 330 -114 375 -134 17 -7 80 -34 140 -60
228 -97 532 -259 755 -403 76 -49 291 -198 330 -229 8 -6 65 -51 125 -99 210
-167 401 -343 421 -389 7 -16 21 -39 32 -51 61 -64 298 -394 402 -559 141
-225 320 -558 399 -745 21 -49 44 -103 72 -165 41 -92 189 -517 204 -585 2 -8
11 -42 20 -75 35 -129 87 -345 101 -425 2 -14 9 -47 14 -75 24 -130 45 -276
66 -450 7 -66 22 -95 63 -122 28 -19 43 -22 90 -18 85 7 171 15 221 21 25 3
65 7 89 9 25 3 63 7 85 9 23 3 70 8 106 11 132 12 166 23 196 62 26 34 26 39
21 122 -5 75 -18 175 -32 261 -2 14 -7 45 -10 70 -11 84 -54 308 -84 442 -26
117 -50 207 -107 416 -54 199 -229 672 -320 869 -187 402 -333 663 -550 988
-121 180 -341 473 -375 498 -17 12 -42 19 -70 19 -35 -1 -60 -13 -155 -76 -62
-42 -116 -76 -121 -76 -6 0 -21 12 -35 28 -67 73 -290 271 -438 388 -41 32
-77 61 -80 65 -9 10 -254 184 -330 235 -268 178 -603 362 -875 479 -60 26
-123 53 -140 61 -112 49 -493 181 -607 210 -10 2 -26 6 -35 9 -77 21 -293 75
-318 79 -18 3 -38 8 -46 10 -15 6 -21 7 -159 31 -47 9 -97 18 -110 20 -37 8
-158 25 -215 31 -27 3 -60 7 -72 9 -12 2 -57 6 -100 10 -43 4 -94 8 -113 10
-85 10 -575 25 -583 19z"/>
<path d="M10339 12426 c-8 -6 -23 -31 -33 -56 -55 -136 -55 -137 -43 -153 10
-14 169 -87 189 -87 16 0 333 -157 448 -222 657 -374 1225 -928 1614 -1575
187 -312 364 -718 456 -1048 35 -126 60 -226 66 -261 3 -21 8 -42 10 -45 2 -3
6 -21 9 -40 3 -19 12 -70 20 -114 8 -44 17 -100 20 -125 4 -25 8 -58 11 -75 5
-34 10 -90 21 -225 16 -189 9 -655 -12 -820 -3 -19 -7 -55 -10 -80 -6 -44 -22
-156 -29 -195 -12 -64 -27 -143 -32 -165 -3 -14 -7 -36 -10 -50 -34 -167 -149
-525 -229 -715 -52 -122 -56 -137 -47 -152 11 -16 169 -93 192 -93 27 0 40 24
103 180 93 232 181 511 222 700 15 71 55 273 60 305 14 94 24 174 31 240 3 39
8 77 9 85 2 9 6 74 10 145 13 220 8 544 -10 700 -2 22 -7 63 -10 90 -10 95
-31 250 -41 299 -2 11 -6 35 -9 51 -24 140 -90 404 -139 555 -173 533 -403
974 -734 1410 -53 69 -98 127 -101 130 -3 3 -31 34 -61 70 -99 118 -300 326
-415 430 -394 356 -831 636 -1310 840 -177 75 -197 81 -216 66z"/>
<path d="M5610 10845 c0 -2 27 -37 279 -359 102 -131 118 -146 145 -147 17 0
213 -1 436 -2 l405 -2 55 -27 c220 -108 325 -416 229 -674 -39 -105 -111 -200
-189 -249 -81 -51 -81 -51 -742 -50 l-618 1 0 -758 0 -758 200 0 199 0 0 468
c0 257 0 483 0 502 l1 35 443 1 c493 0 507 2 642 70 143 73 248 180 369 377
29 47 67 156 96 272 25 97 28 129 28 275 1 183 -12 272 -58 412 -86 256 -254
461 -455 553 -131 60 -114 59 -817 61 -357 1 -648 1 -648 -1z"/>
<path d="M10150 10843 c0 -4 86 -116 115 -150 5 -6 20 -24 31 -40 12 -15 70
-91 130 -168 59 -77 109 -142 110 -144 2 -1 214 -3 472 -3 430 -1 472 -2 518
-19 112 -42 190 -168 201 -324 12 -169 -62 -320 -189 -387 l-43 -22 -672 0
-673 -1 -1 -40 c0 -22 -1 -136 -2 -252 l-2 -213 35 -1 c19 0 319 0 665 -1 590
0 633 -1 679 -19 159 -60 247 -295 185 -493 -37 -118 -116 -203 -216 -231 -13
-3 -232 -7 -487 -7 l-464 -1 1 -254 0 -254 506 3 506 3 65 24 c36 13 76 32 90
41 14 9 45 30 68 45 138 91 268 297 323 511 36 141 33 396 -6 544 -29 108 -67
192 -127 281 l-44 66 32 41 c51 67 112 200 140 308 22 84 27 122 28 249 1 180
-6 239 -44 355 -88 270 -259 459 -480 532 -64 21 -80 21 -757 24 -381 1 -693
0 -693 -3z"/>
<path d="M7672 10490 l0 -351 162 -207 c90 -114 288 -367 440 -562 153 -195
285 -364 294 -375 9 -11 79 -100 156 -199 134 -172 139 -177 156 -160 17 18
486 611 688 870 l87 111 3 -898 2 -899 198 0 197 0 0 1510 0 1510 -22 -23
c-12 -12 -124 -153 -250 -313 -389 -497 -846 -1078 -864 -1099 -10 -11 -26
-31 -36 -44 l-19 -24 -70 89 c-38 49 -105 134 -149 189 -44 56 -92 117 -107
135 -52 67 -350 446 -397 505 -26 33 -141 178 -255 323 -114 144 -209 262
-210 262 -2 0 -4 -158 -4 -350z"/>
<path d="M4162 8507 c-14 -6 -22 -20 -23 -36 -1 -14 -3 -42 -5 -61 -12 -124
-4 -644 11 -720 2 -9 6 -50 10 -91 3 -41 8 -83 10 -94 2 -11 7 -42 10 -70 5
-43 13 -93 32 -195 85 -469 273 -980 515 -1410 56 -98 186 -309 198 -320 3 -3
25 -34 49 -70 45 -66 149 -204 187 -250 131 -155 185 -215 303 -335 168 -170
208 -207 358 -332 433 -360 934 -641 1468 -823 247 -84 576 -167 620 -156 27
7 31 22 40 142 7 87 -1 104 -48 111 -73 10 -372 92 -521 143 -1278 436 -2287
1429 -2743 2700 -44 125 -129 417 -148 510 -1 3 -4 19 -8 35 -19 78 -57 318
-71 440 -26 231 -34 495 -21 731 5 94 4 123 -7 131 -7 6 -44 14 -83 18 -38 4
-79 8 -90 10 -11 1 -31 -3 -43 -8z"/>
<path d="M6465 7463 c-71 -8 -176 -38 -255 -75 -268 -124 -443 -375 -467 -670
l-5 -67 230 1 230 1 5 48 c23 193 216 331 411 296 166 -30 292 -182 287 -349
-3 -102 -119 -297 -298 -499 -178 -201 -509 -501 -723 -654 -64 -46 -74 -55
-79 -75 -3 -15 -51 -175 -65 -217 l-7 -23 813 0 813 0 0 230 0 230 -310 0
-311 0 161 163 c88 89 189 199 223 245 228 306 294 568 211 839 -11 35 -20 65
-20 68 1 11 -65 125 -104 180 -102 144 -272 260 -451 305 -72 19 -216 30 -289
23z"/>
<path d="M8295 7455 c-208 -32 -389 -149 -537 -349 -84 -112 -179 -320 -202
-436 -2 -14 -9 -46 -15 -71 -25 -108 -32 -310 -17 -459 17 -167 90 -387 177
-533 42 -71 133 -184 179 -223 14 -12 36 -32 50 -44 76 -69 226 -141 328 -160
265 -48 495 31 698 238 41 41 74 79 74 83 0 4 6 14 13 21 46 50 134 221 171
332 86 260 97 601 25 841 -57 193 -128 335 -227 455 -197 239 -447 346 -717
305z m225 -486 c255 -128 377 -581 259 -959 -48 -152 -147 -288 -251 -345 -46
-26 -63 -30 -128 -30 -64 1 -83 5 -128 30 -176 96 -300 370 -296 655 3 196 43
346 129 480 118 183 267 244 415 169z"/>
<path d="M10382 7462 l-32 -3 2 -341 3 -340 225 -1 225 0 1 111 c1 62 4 115 7
118 3 3 116 7 252 7 l247 2 -6 -30 c-6 -27 -79 -264 -437 -1412 -65 -210 -119
-385 -119 -388 0 -3 108 -5 239 -5 l239 0 26 78 c13 42 50 158 81 257 108 344
269 853 335 1060 46 142 89 282 95 305 2 8 27 87 55 175 56 172 107 333 120
378 l9 27 -117 0 c-64 1 -409 2 -767 3 -357 1 -665 1 -683 -1z"/>
<path d="M9761 7364 c-178 -51 -326 -96 -329 -98 -5 -5 -5 -467 1 -472 1 -2
48 10 102 27 55 16 104 28 110 25 7 -2 10 -277 10 -835 l-1 -831 231 0 230 0
0 1140 c0 1007 -2 1140 -15 1139 -8 -1 -161 -43 -339 -95z"/>
</g>
</svg>
